<svg width="225" height="225" viewBox="0 0 225 225" fill="none" xmlns="http://www.w3.org/2000/svg">
<g clip-path="url(#clip0_1_4)">
<path d="M0 94.1861C0 42.1685 42.1685 0 94.1861 0H208.125C217.445 0 225 7.5552 225 16.875V130.814C225 182.831 182.831 225 130.814 225H16.875C7.55519 225 0 217.445 0 208.125V94.1861Z" fill="#1E1E1E"/>
<g filter="url(#filter0_f_1_4)">
<rect x="37.936" y="37.936" width="149.128" height="149.128" rx="74.564" fill="url(#paint0_linear_1_4)"/>
</g>
<rect x="37.936" y="37.936" width="149.128" height="149.128" rx="74.564" fill="url(#paint1_linear_1_4)"/>
</g>
<path d="M2.25 94.1861C2.25 43.4112 43.4112 2.25 94.1861 2.25H208.125C216.202 2.25 222.75 8.79784 222.75 16.875V130.814C222.75 181.589 181.589 222.75 130.814 222.75H16.875C8.79783 222.75 2.25 216.202 2.25 208.125V94.1861Z" stroke="url(#paint2_linear_1_4)" stroke-width="4.5"/>
<defs>
<filter id="filter0_f_1_4" x="-12.2252" y="-12.2252" width="249.45" height="249.45" filterUnits="userSpaceOnUse" color-interpolation-filters="sRGB">
<feFlood flood-opacity="0" result="BackgroundImageFix"/>
<feBlend mode="normal" in="SourceGraphic" in2="BackgroundImageFix" result="shape"/>
<feGaussianBlur stdDeviation="25.0806" result="effect1_foregroundBlur_1_4"/>
</filter>
<linearGradient id="paint0_linear_1_4" x1="112.5" y1="37.936" x2="112.5" y2="187.064" gradientUnits="userSpaceOnUse">
<stop stop-color="#E4A430"/>
<stop offset="1" stop-color="#CB662F"/>
</linearGradient>
<linearGradient id="paint1_linear_1_4" x1="112.5" y1="37.936" x2="112.5" y2="187.064" gradientUnits="userSpaceOnUse">
<stop offset="0.05" stop-color="#FF463F"/>
<stop offset="0.76" stop-color="#CB662F"/>
<stop offset="1" stop-color="#E4A430"/>
</linearGradient>
<linearGradient id="paint2_linear_1_4" x1="112.5" y1="0" x2="112.5" y2="225" gradientUnits="userSpaceOnUse">
<stop stop-color="#BCBCBC"/>
<stop offset="1" stop-color="#BCBCBC" stop-opacity="0.17"/>
</linearGradient>
<clipPath id="clip0_1_4">
<path d="M0 94.1861C0 42.1685 42.1685 0 94.1861 0H208.125C217.445 0 225 7.5552 225 16.875V130.814C225 182.831 182.831 225 130.814 225H16.875C7.55519 225 0 217.445 0 208.125V94.1861Z" fill="white"/>
</clipPath>
</defs>
</svg>
