<svg width="1624" height="1526" viewBox="0 0 1624 1526" fill="none" xmlns="http://www.w3.org/2000/svg">
<g clip-path="url(#clip0_1605_7382)">
<path fill-rule="evenodd" clip-rule="evenodd" d="M1166.2 494.097C1191.58 487.742 1217.65 485.038 1243.64 486.003V623.435C1228.87 622.344 1213.98 623.613 1199.54 627.229C1179.26 632.308 1160.38 641.887 1144.31 655.256C1128.24 668.625 1115.38 685.44 1106.69 704.456C1098 723.471 1093.71 744.198 1094.12 765.1C1094.54 786.002 1099.65 806.543 1109.09 825.199C1118.52 843.855 1132.04 860.147 1148.63 872.869C1165.22 885.59 1184.46 894.413 1204.92 898.685C1217.68 901.348 1230.72 902.199 1243.64 901.244V1038.68C1221.31 1039.51 1198.89 1037.63 1176.88 1033.03C1136.25 1024.55 1098.05 1007.04 1065.11 981.78C1032.18 956.523 1005.35 924.176 986.614 887.138C967.882 850.099 957.729 809.318 956.906 767.82C956.083 726.322 964.613 685.171 981.862 647.419C999.112 609.667 1024.64 576.282 1056.55 549.74C1088.46 523.199 1125.94 504.181 1166.2 494.097Z" fill="white"/>
<path fill-rule="evenodd" clip-rule="evenodd" d="M1237.68 311.758C1239.64 311.8 1241.58 311.854 1243.53 311.922V445.516C1228.31 444.764 1212.97 445.124 1197.62 446.632C1117.02 454.552 1042.65 493.503 990.238 555.252C937.826 617.002 911.478 696.711 916.763 777.532C922.047 858.353 958.55 933.952 1018.56 988.352C1078.56 1042.75 1157.37 1071.69 1238.32 1069.04C1240.06 1068.99 1241.8 1068.91 1243.53 1068.83V1202.42C1243.25 1202.43 1242.96 1202.44 1242.68 1202.45C1127.1 1206.23 1014.58 1164.91 928.904 1087.24C843.23 1009.57 791.112 901.634 783.567 786.241C776.022 670.847 813.641 557.04 888.473 468.876C963.305 380.712 1069.48 325.099 1184.57 313.792C1195.93 312.676 1207.28 312 1218.61 311.758H1237.68Z" fill="white"/>
<path fill-rule="evenodd" clip-rule="evenodd" d="M789.949 321.487C792.994 318.208 796.07 314.965 799.177 311.758H1009.52C963.567 337.499 921.463 370.425 884.959 409.729C793.72 507.967 744.794 638.158 748.753 772.171C752.712 906.185 809.239 1033.26 906.119 1125.94C942.97 1161.19 984.534 1190.39 1029.27 1212.94H809.584C692.312 1097.33 624.013 940.85 619.143 776C614.178 607.943 675.532 444.68 789.949 321.487Z" fill="white"/>
<path fill-rule="evenodd" clip-rule="evenodd" d="M445.537 801.126C437.602 627.645 483.001 457.123 573.851 311.758H751.027C639.169 446.738 581.32 618.815 589.358 794.547C596.409 948.685 653.681 1095.4 751.132 1212.94H573.934C497.086 1090.02 452.273 948.388 445.537 801.126Z" fill="white"/>
<path fill-rule="evenodd" clip-rule="evenodd" d="M417.724 802.06C409.791 628.642 454.07 458.119 543.003 311.773H342.297V1212.97H542.957C468.077 1089.71 424.427 948.619 417.724 802.06ZM1282.59 -282.248C1283.92 -282.251 1285.25 -282.251 1286.58 -282.248H1282.59Z" fill="white"/>
</g>
<defs>
<clipPath id="clip0_1605_7382">
<rect width="1623.41" height="1525.32" fill="white"/>
</clipPath>
</defs>
</svg>
